<mxfile host="app.diagrams.net" modified="2021-08-12T10:03:10.026Z" agent="5.0 (Macintosh; Intel Mac OS X 10_15_7) AppleWebKit/537.36 (KHTML, like Gecko) Chrome/92.0.4515.131 Safari/537.36" etag="WroM9oZVxtvcSBnmiSmh" version="14.9.6" type="github">
  <diagram id="1F0Rd-pc989BCwmUIx6X" name="Page-1">
    <mxGraphModel dx="2013" dy="621" grid="1" gridSize="10" guides="1" tooltips="1" connect="1" arrows="1" fold="1" page="1" pageScale="1" pageWidth="827" pageHeight="1169" math="0" shadow="0">
      <root>
        <mxCell id="0" />
        <mxCell id="1" parent="0" />
        <mxCell id="6bVMSZCFm5HJMRc3waut-16" style="edgeStyle=orthogonalEdgeStyle;rounded=0;orthogonalLoop=1;jettySize=auto;html=1;entryX=0.5;entryY=0;entryDx=0;entryDy=0;" edge="1" parent="1" source="6bVMSZCFm5HJMRc3waut-1" target="6bVMSZCFm5HJMRc3waut-14">
          <mxGeometry relative="1" as="geometry" />
        </mxCell>
        <mxCell id="6bVMSZCFm5HJMRc3waut-1" value="Open APP" style="rounded=1;whiteSpace=wrap;html=1;" vertex="1" parent="1">
          <mxGeometry x="200" width="120" height="60" as="geometry" />
        </mxCell>
        <mxCell id="6bVMSZCFm5HJMRc3waut-10" style="edgeStyle=orthogonalEdgeStyle;rounded=0;orthogonalLoop=1;jettySize=auto;html=1;entryX=0.5;entryY=0;entryDx=0;entryDy=0;" edge="1" parent="1" source="6bVMSZCFm5HJMRc3waut-4" target="6bVMSZCFm5HJMRc3waut-7">
          <mxGeometry relative="1" as="geometry" />
        </mxCell>
        <mxCell id="6bVMSZCFm5HJMRc3waut-4" value="Rta显示次数小于3" style="ellipse;whiteSpace=wrap;html=1;" vertex="1" parent="1">
          <mxGeometry x="200" y="230" width="120" height="80" as="geometry" />
        </mxCell>
        <mxCell id="6bVMSZCFm5HJMRc3waut-11" style="edgeStyle=orthogonalEdgeStyle;rounded=0;orthogonalLoop=1;jettySize=auto;html=1;entryX=0.5;entryY=0;entryDx=0;entryDy=0;" edge="1" parent="1" source="6bVMSZCFm5HJMRc3waut-7" target="6bVMSZCFm5HJMRc3waut-8">
          <mxGeometry relative="1" as="geometry" />
        </mxCell>
        <mxCell id="6bVMSZCFm5HJMRc3waut-7" value="使用app&amp;gt;2天&lt;br&gt;&amp;gt;=3个session，&lt;br&gt;如果是第二次显示和上次相隔大于10天" style="ellipse;whiteSpace=wrap;html=1;" vertex="1" parent="1">
          <mxGeometry x="190" y="350" width="140" height="100" as="geometry" />
        </mxCell>
        <mxCell id="6bVMSZCFm5HJMRc3waut-12" style="edgeStyle=orthogonalEdgeStyle;rounded=0;orthogonalLoop=1;jettySize=auto;html=1;" edge="1" parent="1" source="6bVMSZCFm5HJMRc3waut-8">
          <mxGeometry relative="1" as="geometry">
            <mxPoint x="260" y="640" as="targetPoint" />
          </mxGeometry>
        </mxCell>
        <mxCell id="6bVMSZCFm5HJMRc3waut-8" value="没有完成RTA" style="ellipse;whiteSpace=wrap;html=1;" vertex="1" parent="1">
          <mxGeometry x="200" y="520" width="120" height="80" as="geometry" />
        </mxCell>
        <mxCell id="6bVMSZCFm5HJMRc3waut-27" style="edgeStyle=orthogonalEdgeStyle;rounded=0;orthogonalLoop=1;jettySize=auto;html=1;entryX=0;entryY=0.5;entryDx=0;entryDy=0;" edge="1" parent="1" source="6bVMSZCFm5HJMRc3waut-13" target="6bVMSZCFm5HJMRc3waut-26">
          <mxGeometry relative="1" as="geometry" />
        </mxCell>
        <mxCell id="6bVMSZCFm5HJMRc3waut-30" style="edgeStyle=orthogonalEdgeStyle;rounded=0;orthogonalLoop=1;jettySize=auto;html=1;" edge="1" parent="1" source="6bVMSZCFm5HJMRc3waut-13">
          <mxGeometry relative="1" as="geometry">
            <mxPoint x="260" y="780" as="targetPoint" />
          </mxGeometry>
        </mxCell>
        <mxCell id="6bVMSZCFm5HJMRc3waut-13" value="显示RTA&amp;nbsp;&lt;br&gt;Are you Enjoy Dialog" style="ellipse;whiteSpace=wrap;html=1;" vertex="1" parent="1">
          <mxGeometry x="200" y="640" width="120" height="80" as="geometry" />
        </mxCell>
        <mxCell id="6bVMSZCFm5HJMRc3waut-15" style="edgeStyle=orthogonalEdgeStyle;rounded=0;orthogonalLoop=1;jettySize=auto;html=1;entryX=0.5;entryY=0;entryDx=0;entryDy=0;" edge="1" parent="1" source="6bVMSZCFm5HJMRc3waut-14" target="6bVMSZCFm5HJMRc3waut-4">
          <mxGeometry relative="1" as="geometry" />
        </mxCell>
        <mxCell id="6bVMSZCFm5HJMRc3waut-19" style="edgeStyle=orthogonalEdgeStyle;rounded=0;orthogonalLoop=1;jettySize=auto;html=1;entryX=0;entryY=0.5;entryDx=0;entryDy=0;" edge="1" parent="1" source="6bVMSZCFm5HJMRc3waut-14" target="6bVMSZCFm5HJMRc3waut-18">
          <mxGeometry relative="1" as="geometry" />
        </mxCell>
        <mxCell id="6bVMSZCFm5HJMRc3waut-14" value="是否升级用户" style="ellipse;whiteSpace=wrap;html=1;" vertex="1" parent="1">
          <mxGeometry x="200" y="110" width="120" height="80" as="geometry" />
        </mxCell>
        <mxCell id="6bVMSZCFm5HJMRc3waut-17" value="NO" style="text;html=1;align=center;verticalAlign=middle;resizable=0;points=[];autosize=1;strokeColor=none;" vertex="1" parent="1">
          <mxGeometry x="230" y="200" width="30" height="20" as="geometry" />
        </mxCell>
        <mxCell id="6bVMSZCFm5HJMRc3waut-18" value="Reset RTA数据&lt;br&gt;需要再使用&amp;gt;2天&lt;br&gt;&amp;gt;=三个session.&lt;br&gt;但RTA显示次数不重置" style="ellipse;whiteSpace=wrap;html=1;" vertex="1" parent="1">
          <mxGeometry x="440" y="110" width="240" height="80" as="geometry" />
        </mxCell>
        <mxCell id="6bVMSZCFm5HJMRc3waut-20" value="Yes" style="text;html=1;align=center;verticalAlign=middle;resizable=0;points=[];autosize=1;strokeColor=none;" vertex="1" parent="1">
          <mxGeometry x="330" y="130" width="40" height="20" as="geometry" />
        </mxCell>
        <mxCell id="6bVMSZCFm5HJMRc3waut-25" value="在用户整个生命周期。RTA POP 只显示最多3次." style="rhombus;whiteSpace=wrap;html=1;" vertex="1" parent="1">
          <mxGeometry x="-40" y="210" width="140" height="120" as="geometry" />
        </mxCell>
        <mxCell id="6bVMSZCFm5HJMRc3waut-40" style="edgeStyle=orthogonalEdgeStyle;rounded=0;orthogonalLoop=1;jettySize=auto;html=1;" edge="1" parent="1" source="6bVMSZCFm5HJMRc3waut-26">
          <mxGeometry relative="1" as="geometry">
            <mxPoint x="640" y="680" as="targetPoint" />
          </mxGeometry>
        </mxCell>
        <mxCell id="6bVMSZCFm5HJMRc3waut-26" value="Go to Feedback" style="ellipse;whiteSpace=wrap;html=1;" vertex="1" parent="1">
          <mxGeometry x="440" y="640" width="120" height="80" as="geometry" />
        </mxCell>
        <mxCell id="6bVMSZCFm5HJMRc3waut-28" value="No" style="text;html=1;align=center;verticalAlign=middle;resizable=0;points=[];autosize=1;strokeColor=none;" vertex="1" parent="1">
          <mxGeometry x="360" y="650" width="30" height="20" as="geometry" />
        </mxCell>
        <mxCell id="6bVMSZCFm5HJMRc3waut-32" style="edgeStyle=orthogonalEdgeStyle;rounded=0;orthogonalLoop=1;jettySize=auto;html=1;" edge="1" parent="1" source="6bVMSZCFm5HJMRc3waut-29" target="6bVMSZCFm5HJMRc3waut-33">
          <mxGeometry relative="1" as="geometry">
            <mxPoint x="260" y="970" as="targetPoint" />
          </mxGeometry>
        </mxCell>
        <mxCell id="6bVMSZCFm5HJMRc3waut-36" style="edgeStyle=orthogonalEdgeStyle;rounded=0;orthogonalLoop=1;jettySize=auto;html=1;entryX=0;entryY=0.5;entryDx=0;entryDy=0;" edge="1" parent="1" source="6bVMSZCFm5HJMRc3waut-29">
          <mxGeometry relative="1" as="geometry">
            <mxPoint x="440" y="830" as="targetPoint" />
          </mxGeometry>
        </mxCell>
        <mxCell id="6bVMSZCFm5HJMRc3waut-29" value="显示&lt;br&gt;是否去rete" style="ellipse;whiteSpace=wrap;html=1;" vertex="1" parent="1">
          <mxGeometry x="200" y="790" width="120" height="80" as="geometry" />
        </mxCell>
        <mxCell id="6bVMSZCFm5HJMRc3waut-33" value="Google play" style="ellipse;whiteSpace=wrap;html=1;" vertex="1" parent="1">
          <mxGeometry x="200" y="970" width="120" height="80" as="geometry" />
        </mxCell>
        <mxCell id="6bVMSZCFm5HJMRc3waut-34" value="Yes" style="text;html=1;align=center;verticalAlign=middle;resizable=0;points=[];autosize=1;strokeColor=none;" vertex="1" parent="1">
          <mxGeometry x="210" y="920" width="40" height="20" as="geometry" />
        </mxCell>
        <mxCell id="6bVMSZCFm5HJMRc3waut-37" value="No" style="text;html=1;align=center;verticalAlign=middle;resizable=0;points=[];autosize=1;strokeColor=none;" vertex="1" parent="1">
          <mxGeometry x="355" y="850" width="30" height="20" as="geometry" />
        </mxCell>
        <mxCell id="6bVMSZCFm5HJMRc3waut-38" value="Reset RTA数据&lt;br&gt;但RTA显示次数不重置" style="ellipse;whiteSpace=wrap;html=1;" vertex="1" parent="1">
          <mxGeometry x="440" y="790" width="240" height="80" as="geometry" />
        </mxCell>
        <mxCell id="6bVMSZCFm5HJMRc3waut-39" value="Reset RTA数据&lt;br&gt;但RTA显示次数不重置" style="ellipse;whiteSpace=wrap;html=1;" vertex="1" parent="1">
          <mxGeometry x="650" y="640" width="240" height="80" as="geometry" />
        </mxCell>
        <mxCell id="6bVMSZCFm5HJMRc3waut-41" value="" style="shape=flexArrow;endArrow=classic;startArrow=classic;html=1;exitX=1;exitY=0.5;exitDx=0;exitDy=0;entryX=0;entryY=0.5;entryDx=0;entryDy=0;" edge="1" parent="1" source="6bVMSZCFm5HJMRc3waut-25" target="6bVMSZCFm5HJMRc3waut-4">
          <mxGeometry width="100" height="100" relative="1" as="geometry">
            <mxPoint x="390" y="410" as="sourcePoint" />
            <mxPoint x="490" y="310" as="targetPoint" />
          </mxGeometry>
        </mxCell>
        <mxCell id="6bVMSZCFm5HJMRc3waut-43" style="edgeStyle=orthogonalEdgeStyle;rounded=0;orthogonalLoop=1;jettySize=auto;html=1;entryX=0;entryY=0.5;entryDx=0;entryDy=0;" edge="1" parent="1" source="6bVMSZCFm5HJMRc3waut-42" target="6bVMSZCFm5HJMRc3waut-29">
          <mxGeometry relative="1" as="geometry" />
        </mxCell>
        <mxCell id="6bVMSZCFm5HJMRc3waut-45" style="edgeStyle=orthogonalEdgeStyle;rounded=0;orthogonalLoop=1;jettySize=auto;html=1;" edge="1" parent="1" source="6bVMSZCFm5HJMRc3waut-42">
          <mxGeometry relative="1" as="geometry">
            <mxPoint x="-40" y="710" as="targetPoint" />
          </mxGeometry>
        </mxCell>
        <mxCell id="6bVMSZCFm5HJMRc3waut-42" value="主页RTA手动点击" style="ellipse;whiteSpace=wrap;html=1;" vertex="1" parent="1">
          <mxGeometry x="-100" y="790" width="120" height="80" as="geometry" />
        </mxCell>
        <mxCell id="6bVMSZCFm5HJMRc3waut-44" value="Like" style="text;html=1;align=center;verticalAlign=middle;resizable=0;points=[];autosize=1;strokeColor=none;" vertex="1" parent="1">
          <mxGeometry x="50" y="800" width="40" height="20" as="geometry" />
        </mxCell>
        <mxCell id="6bVMSZCFm5HJMRc3waut-48" style="edgeStyle=orthogonalEdgeStyle;rounded=0;orthogonalLoop=1;jettySize=auto;html=1;entryX=0.242;entryY=0.038;entryDx=0;entryDy=0;entryPerimeter=0;" edge="1" parent="1" source="6bVMSZCFm5HJMRc3waut-46" target="6bVMSZCFm5HJMRc3waut-26">
          <mxGeometry relative="1" as="geometry">
            <Array as="points">
              <mxPoint x="-40" y="620" />
              <mxPoint x="469" y="620" />
            </Array>
          </mxGeometry>
        </mxCell>
        <mxCell id="6bVMSZCFm5HJMRc3waut-46" value="Is go to feedback" style="ellipse;whiteSpace=wrap;html=1;" vertex="1" parent="1">
          <mxGeometry x="-100" y="650" width="120" height="60" as="geometry" />
        </mxCell>
        <mxCell id="6bVMSZCFm5HJMRc3waut-47" value="Not Really" style="text;html=1;align=center;verticalAlign=middle;resizable=0;points=[];autosize=1;strokeColor=none;" vertex="1" parent="1">
          <mxGeometry x="-110" y="740" width="70" height="20" as="geometry" />
        </mxCell>
        <mxCell id="6bVMSZCFm5HJMRc3waut-49" value="Yes" style="text;html=1;align=center;verticalAlign=middle;resizable=0;points=[];autosize=1;strokeColor=none;" vertex="1" parent="1">
          <mxGeometry x="50" y="590" width="40" height="20" as="geometry" />
        </mxCell>
      </root>
    </mxGraphModel>
  </diagram>
</mxfile>
